<svg width="159" height="47" viewBox="0 0 159 47" fill="none" xmlns="http://www.w3.org/2000/svg">
<path d="M0.152344 6.58594C0.790365 6.65885 1.32812 6.71354 1.76562 6.75C2.20312 6.76823 2.54948 6.78646 2.80469 6.80469C3.11458 6.82292 3.36068 6.83203 3.54297 6.83203C3.85286 6.83203 4.20833 6.82292 4.60938 6.80469C4.95573 6.78646 5.35677 6.75911 5.8125 6.72266C6.28646 6.66797 6.79688 6.58594 7.34375 6.47656C7.08854 6.75 6.87891 7.01432 6.71484 7.26953C6.55078 7.50651 6.42318 7.72526 6.33203 7.92578C6.22266 8.14453 6.13151 8.34505 6.05859 8.52734C5.98568 8.76432 5.90365 9.12891 5.8125 9.62109C5.72135 10.0404 5.62109 10.6328 5.51172 11.3984C5.42057 12.1641 5.30208 13.1667 5.15625 14.4062C5.77604 14.4245 6.3138 14.4336 6.76953 14.4336C7.22526 14.4154 7.60807 14.4062 7.91797 14.4062H8.82031C9.07552 14.388 9.36719 14.3698 9.69531 14.3516C10.2422 14.3333 11.0716 14.2786 12.1836 14.1875C12.2747 13.349 12.3203 12.6289 12.3203 12.0273C12.3385 11.4076 12.3294 10.888 12.293 10.4688C12.2565 9.99479 12.2018 9.59375 12.1289 9.26562C12.0742 9.08333 11.9922 8.86458 11.8828 8.60938C11.7917 8.39062 11.6641 8.1263 11.5 7.81641C11.3542 7.48828 11.1536 7.09635 10.8984 6.64062C11.3724 6.71354 11.7917 6.76823 12.1562 6.80469C12.5391 6.82292 12.8581 6.84115 13.1133 6.85938C13.4049 6.8776 13.651 6.88672 13.8516 6.88672C14.0521 6.88672 14.3164 6.8776 14.6445 6.85938C14.918 6.84115 15.2552 6.83203 15.6562 6.83203C16.0573 6.8138 16.5495 6.78646 17.1328 6.75C16.987 7.00521 16.8594 7.26953 16.75 7.54297C16.6406 7.81641 16.5495 8.0625 16.4766 8.28125C16.4036 8.53646 16.3307 8.79167 16.2578 9.04688C16.1667 9.42969 16.0846 9.98568 16.0117 10.7148C15.957 11.444 15.9023 12.2552 15.8477 13.1484C15.8112 14.0417 15.7747 14.9714 15.7383 15.9375C15.7201 16.9036 15.7018 17.8151 15.6836 18.6719C15.6836 19.5286 15.6927 20.2943 15.7109 20.9688C15.7292 21.625 15.7656 22.0898 15.8203 22.3633C15.875 22.6914 15.9661 23.0286 16.0938 23.375C16.2031 23.6849 16.349 24.0221 16.5312 24.3867C16.7135 24.7331 16.9505 25.0612 17.2422 25.3711L10.6523 25.8633C10.9258 25.6081 11.1445 25.362 11.3086 25.125C11.4727 24.8698 11.6003 24.651 11.6914 24.4688C11.7826 24.2682 11.8464 24.0768 11.8828 23.8945C11.901 23.6758 11.9284 23.293 11.9648 22.7461C12.0013 22.2904 12.0378 21.6432 12.0742 20.8047C12.1107 19.9661 12.1471 18.8542 12.1836 17.4688C11.9284 17.4688 11.6185 17.4779 11.2539 17.4961C10.9076 17.4961 10.5794 17.5052 10.2695 17.5234C9.90495 17.5417 9.52214 17.5508 9.12109 17.5508C8.72005 17.569 8.30078 17.5872 7.86328 17.6055C7.4987 17.6419 7.08854 17.6784 6.63281 17.7148C6.19531 17.7331 5.75781 17.7604 5.32031 17.7969C5.28385 18.5625 5.28385 19.237 5.32031 19.8203C5.35677 20.3854 5.41146 20.8685 5.48438 21.2695C5.55729 21.7435 5.64844 22.1536 5.75781 22.5C5.86719 22.8281 5.98568 23.1562 6.11328 23.4844C6.22266 23.776 6.35026 24.0859 6.49609 24.4141C6.66016 24.7422 6.82422 25.0339 6.98828 25.2891C6.64193 25.2526 6.32292 25.2253 6.03125 25.207C5.73958 25.1706 5.48438 25.1341 5.26562 25.0977C5.01042 25.0794 4.76432 25.0612 4.52734 25.043C4.29036 25.043 4.00781 25.0339 3.67969 25.0156C3.38802 24.9974 3.02344 24.9883 2.58594 24.9883C2.14844 24.9701 1.63802 24.9609 1.05469 24.9609C1.40104 24.6146 1.67448 24.2773 1.875 23.9492C2.09375 23.6029 2.2487 23.293 2.33984 23.0195C2.44922 22.6914 2.52214 22.3906 2.55859 22.1172C2.57682 21.8802 2.58594 21.4336 2.58594 20.7773C2.60417 20.1211 2.60417 19.3737 2.58594 18.5352C2.58594 17.6784 2.57682 16.7852 2.55859 15.8555C2.54036 14.9076 2.51302 14.0234 2.47656 13.2031C2.45833 12.3828 2.43099 11.681 2.39453 11.0977C2.3763 10.4961 2.35807 10.1224 2.33984 9.97656C2.2487 9.64844 2.11198 9.29297 1.92969 8.91016C1.76562 8.60026 1.54688 8.24479 1.27344 7.84375C1 7.42448 0.626302 7.00521 0.152344 6.58594ZM19.9766 14.9258C20.0677 14.8164 20.1224 14.6159 20.1406 14.3242C20.1771 14.0143 20.25 13.668 20.3594 13.2852C20.487 12.9023 20.6966 12.5013 20.9883 12.082C21.2799 11.6628 21.7539 11.2708 22.4102 10.9062C23.0482 10.5417 23.668 10.3229 24.2695 10.25C24.8711 10.1771 25.4453 10.2044 25.9922 10.332C26.5391 10.4596 27.0495 10.6602 27.5234 10.9336C28.0156 11.207 28.4622 11.5078 28.8633 11.8359C29.1367 12.0547 29.3555 12.3737 29.5195 12.793C29.6836 13.194 29.8112 13.6497 29.9023 14.1602C29.9935 14.6706 30.0573 15.2083 30.0938 15.7734C30.1484 16.3203 30.1849 16.8581 30.2031 17.3867C30.2214 17.8971 30.2305 18.3711 30.2305 18.8086C30.2487 19.2279 30.2852 19.5742 30.3398 19.8477C30.4128 20.2487 30.5404 20.5951 30.7227 20.8867C30.9049 21.1602 31.1055 21.3971 31.3242 21.5977C31.543 21.7799 31.7617 21.9258 31.9805 22.0352C32.1992 22.1445 32.3906 22.2266 32.5547 22.2812C32.6641 22.3359 32.7643 22.3724 32.8555 22.3906C33.0378 22.4635 33.1654 22.4635 33.2383 22.3906C33.1289 22.6458 33.0286 22.8646 32.9375 23.0469C32.8464 23.2292 32.7734 23.3841 32.7188 23.5117C32.6458 23.6576 32.582 23.776 32.5273 23.8672C32.4727 23.9766 32.4089 24.0768 32.3359 24.168C32.2812 24.2591 32.2083 24.3594 32.1172 24.4688C32.026 24.5781 31.9349 24.6966 31.8438 24.8242C31.6068 24.7331 31.3789 24.6237 31.1602 24.4961C30.9596 24.3685 30.7773 24.25 30.6133 24.1406C30.4128 24.013 30.2305 23.8854 30.0664 23.7578C29.9023 23.6302 29.7474 23.4844 29.6016 23.3203C29.474 23.1745 29.3372 23.0195 29.1914 22.8555C29.0638 22.6914 28.9544 22.5091 28.8633 22.3086C28.7539 22.5456 28.4896 22.8828 28.0703 23.3203C27.6693 23.7578 27.1406 24.1589 26.4844 24.5234C25.8281 24.8698 25.0625 25.1159 24.1875 25.2617C23.3307 25.4076 22.3828 25.3073 21.3438 24.9609C20.888 24.8151 20.4596 24.6055 20.0586 24.332C19.6576 24.0404 19.3112 23.694 19.0195 23.293C18.7461 22.8919 18.5456 22.4362 18.418 21.9258C18.3086 21.3971 18.3177 20.8138 18.4453 20.1758C18.5729 19.5378 18.8008 19 19.1289 18.5625C19.457 18.125 19.849 17.7695 20.3047 17.4961C20.7604 17.2227 21.2708 17.013 21.8359 16.8672C22.401 16.7214 22.9844 16.6211 23.5859 16.5664C24.0599 16.5482 24.5339 16.5755 25.0078 16.6484C25.4089 16.7214 25.8281 16.8581 26.2656 17.0586C26.7031 17.2409 27.0768 17.5234 27.3867 17.9062C27.3685 16.9401 27.332 16.1745 27.2773 15.6094C27.2409 15.026 27.2044 14.5794 27.168 14.2695C27.0951 13.9049 27.0312 13.6497 26.9766 13.5039C26.8854 13.3763 26.7852 13.2305 26.6758 13.0664C26.5846 12.9023 26.4661 12.7565 26.3203 12.6289C26.1745 12.4831 25.9922 12.3646 25.7734 12.2734C25.5547 12.1823 25.2995 12.1458 25.0078 12.1641C24.6979 12.1823 24.4518 12.2643 24.2695 12.4102C24.0872 12.556 23.9414 12.7292 23.832 12.9297C23.7409 13.112 23.6862 13.3125 23.668 13.5312C23.6497 13.75 23.6589 13.9414 23.6953 14.1055C23.7318 14.2148 23.7865 14.3333 23.8594 14.4609C23.9323 14.5703 24.0326 14.6888 24.1602 14.8164C24.2878 14.944 24.4609 15.0534 24.6797 15.1445C24.2604 15.1992 23.8867 15.2448 23.5586 15.2812C23.2305 15.2995 22.9479 15.3268 22.7109 15.3633C22.4375 15.3997 22.2005 15.4271 22 15.4453C21.7995 15.4635 21.5625 15.5 21.2891 15.5547C21.0521 15.5911 20.7604 15.6367 20.4141 15.6914C20.0677 15.7461 19.6667 15.819 19.2109 15.9102C19.3203 15.7826 19.4206 15.6641 19.5117 15.5547C19.6029 15.4271 19.6849 15.3177 19.7578 15.2266C19.8307 15.1172 19.9036 15.0169 19.9766 14.9258ZM24.0781 18.1797C23.75 18.1979 23.4219 18.2799 23.0938 18.4258C22.7656 18.5534 22.474 18.7448 22.2188 19C21.9635 19.237 21.7448 19.5195 21.5625 19.8477C21.3984 20.1576 21.3164 20.5039 21.3164 20.8867C21.3164 21.2695 21.4076 21.6068 21.5898 21.8984C21.7904 22.1719 22.0456 22.3997 22.3555 22.582C22.6836 22.7643 23.0299 22.8737 23.3945 22.9102C23.7773 22.9466 24.151 22.9102 24.5156 22.8008C24.862 22.6732 25.1901 22.4727 25.5 22.1992C25.8099 21.9076 26.0742 21.5977 26.293 21.2695C26.5117 20.9232 26.6667 20.5859 26.7578 20.2578C26.849 19.9115 26.8581 19.6289 26.7852 19.4102C26.6393 18.9362 26.3112 18.6081 25.8008 18.4258C25.2904 18.2253 24.7161 18.1432 24.0781 18.1797ZM33.8125 22.9922C33.9401 22.3906 34.0312 21.862 34.0859 21.4062C34.1589 20.9323 34.2135 20.5404 34.25 20.2305C34.2865 19.8659 34.3047 19.556 34.3047 19.3008C34.2865 18.9909 34.2682 18.6263 34.25 18.207C34.25 17.7695 34.2318 17.3411 34.1953 16.9219C34.1771 16.4844 34.1497 16.1016 34.1133 15.7734C34.0768 15.4271 34.0312 15.181 33.9766 15.0352C33.9036 14.8893 33.8034 14.7344 33.6758 14.5703C33.4206 14.2604 33.0469 13.9596 32.5547 13.668C32.974 13.5768 33.3294 13.5039 33.6211 13.4492C33.931 13.3763 34.1862 13.3125 34.3867 13.2578C34.6055 13.1849 34.7969 13.1211 34.9609 13.0664C35.1068 13.0117 35.2799 12.957 35.4805 12.9023C35.6445 12.8659 35.8451 12.8203 36.082 12.7656C36.319 12.7109 36.5924 12.6471 36.9023 12.5742L36.8203 15.0625C37.4036 14.3698 37.9961 13.8503 38.5977 13.5039C39.1992 13.1576 39.7643 12.9115 40.293 12.7656C40.8945 12.5833 41.487 12.4922 42.0703 12.4922C42.7995 12.5286 43.474 12.6471 44.0938 12.8477C44.7318 13.0482 45.2786 13.2852 45.7344 13.5586C46.2083 13.8138 46.5911 14.0872 46.8828 14.3789C47.1745 14.6706 47.3477 14.9258 47.4023 15.1445C47.6211 15.8555 47.6758 16.5117 47.5664 17.1133C47.457 17.6966 47.3112 18.2708 47.1289 18.8359C46.9648 19.3828 46.819 19.9297 46.6914 20.4766C46.582 21.0234 46.6276 21.6159 46.8281 22.2539C46.901 22.418 46.974 22.582 47.0469 22.7461C47.1198 22.8919 47.2109 23.0378 47.3203 23.1836C47.4297 23.3294 47.5573 23.4479 47.7031 23.5391C47.5026 23.5208 47.3021 23.5117 47.1016 23.5117C46.901 23.4935 46.7188 23.4753 46.5547 23.457C46.3542 23.4388 46.1719 23.4206 46.0078 23.4023C45.8255 23.3841 45.5794 23.375 45.2695 23.375C44.7409 23.375 43.9206 23.4023 42.8086 23.457C42.9727 23.0742 43.1003 22.7552 43.1914 22.5C43.3008 22.2266 43.3919 22.0078 43.4648 21.8438C43.5378 21.6432 43.5924 21.4883 43.6289 21.3789C43.8477 20.8503 43.9753 20.2487 44.0117 19.5742C44.0664 18.8997 44.0208 18.2161 43.875 17.5234C43.8203 17.2865 43.7292 17.0039 43.6016 16.6758C43.474 16.3477 43.3008 16.0286 43.082 15.7188C42.8815 15.4089 42.6354 15.1445 42.3438 14.9258C42.0703 14.707 41.7513 14.5794 41.3867 14.543C41.0221 14.5065 40.612 14.5977 40.1562 14.8164C39.7188 15.0352 39.2448 15.4362 38.7344 16.0195C38.3516 16.5117 38.0508 17.1133 37.832 17.8242C37.6315 18.4258 37.4948 19.1823 37.4219 20.0938C37.349 20.987 37.4583 22.0352 37.75 23.2383C37.4948 23.2018 37.2578 23.1836 37.0391 23.1836C36.8203 23.1654 36.638 23.1471 36.4922 23.1289C36.3099 23.1107 36.1458 23.0924 36 23.0742C35.8359 23.0742 35.6536 23.0651 35.4531 23.0469C35.2708 23.0469 35.043 23.0469 34.7695 23.0469C34.4961 23.0286 34.1771 23.0104 33.8125 22.9922ZM50.5742 26.9844C50.9388 26.7292 51.2305 26.3919 51.4492 25.9727C51.668 25.5534 51.832 25.1432 51.9414 24.7422C52.069 24.2682 52.151 23.776 52.1875 23.2656C52.1875 22.9557 52.1693 22.4635 52.1328 21.7891C52.0964 21.224 52.0417 20.4492 51.9688 19.4648C51.8958 18.4622 51.7865 17.168 51.6406 15.582C51.4401 15.6003 51.2669 15.6185 51.1211 15.6367C50.9753 15.6367 50.8568 15.6367 50.7656 15.6367H50.4648C50.3737 15.6367 50.2643 15.6458 50.1367 15.6641C50.0273 15.6823 49.8815 15.7096 49.6992 15.7461C49.5352 15.7826 49.3346 15.8281 49.0977 15.8828C49.1341 15.737 49.1523 15.5911 49.1523 15.4453C49.1706 15.2812 49.1888 15.1354 49.207 15.0078C49.2253 14.862 49.2344 14.7253 49.2344 14.5977V14.1875C49.2344 14.0599 49.2344 13.9232 49.2344 13.7773C49.2526 13.6315 49.2708 13.4857 49.2891 13.3398L51.4492 13.3945C51.3581 12.6107 51.3216 11.9089 51.3398 11.2891C51.3581 10.651 51.3854 10.1042 51.4219 9.64844C51.4766 9.11979 51.5495 8.65495 51.6406 8.25391C51.7682 7.76172 51.9414 7.30599 52.1602 6.88672C52.3789 6.46745 52.6797 6.11198 53.0625 5.82031C53.4453 5.52865 53.9193 5.3099 54.4844 5.16406C55.0495 5 55.7331 4.91797 56.5352 4.91797C57.4466 4.9362 58.1667 5.05469 58.6953 5.27344C59.224 5.47396 59.6159 5.73828 59.8711 6.06641C60.1263 6.3763 60.2721 6.73177 60.3086 7.13281C60.3451 7.53385 60.3359 7.92578 60.2812 8.30859C60.2448 8.67318 60.181 9.01042 60.0898 9.32031C60.0169 9.63021 59.9896 9.85807 60.0078 10.0039C60.026 10.1133 60.0716 10.2591 60.1445 10.4414C60.1992 10.5872 60.2812 10.7695 60.3906 10.9883C60.5182 11.207 60.7005 11.4531 60.9375 11.7266C60.6458 11.6901 60.3542 11.6628 60.0625 11.6445C59.7708 11.6081 59.4974 11.5807 59.2422 11.5625C58.9505 11.5443 58.668 11.5352 58.3945 11.5352C58.1211 11.5534 57.8385 11.5716 57.5469 11.5898C57.2917 11.6263 57.0182 11.6628 56.7266 11.6992C56.4349 11.7174 56.1615 11.7721 55.9062 11.8633C56.2708 11.6081 56.5534 11.3438 56.7539 11.0703C56.9544 10.7969 57.1094 10.5508 57.2188 10.332C57.3464 10.0768 57.4284 9.82161 57.4648 9.56641C57.4831 9.25651 57.4648 8.91016 57.4102 8.52734C57.3737 8.1263 57.2917 7.76172 57.1641 7.43359C57.0365 7.10547 56.8815 6.84115 56.6992 6.64062C56.5169 6.42188 56.2982 6.33984 56.043 6.39453C55.6602 6.54036 55.3047 6.89583 54.9766 7.46094C54.7031 7.9349 54.4388 8.65495 54.1836 9.62109C53.9284 10.569 53.7643 11.8906 53.6914 13.5859C54.0378 13.6224 54.3568 13.6497 54.6484 13.668C54.9583 13.668 55.2318 13.6771 55.4688 13.6953C55.7422 13.7135 55.9974 13.7227 56.2344 13.7227C56.4714 13.7227 56.7357 13.7135 57.0273 13.6953C57.2826 13.6771 57.5833 13.668 57.9297 13.668C58.276 13.6497 58.6589 13.6224 59.0781 13.5859L59.0234 15.0078C58.6953 15.0443 58.3763 15.0716 58.0664 15.0898C57.7565 15.1081 57.4831 15.1263 57.2461 15.1445C56.9727 15.1628 56.7174 15.181 56.4805 15.1992C56.2253 15.2174 55.9609 15.2357 55.6875 15.2539C55.4505 15.2721 55.1771 15.2995 54.8672 15.3359C54.5755 15.3724 54.2656 15.4089 53.9375 15.4453C54.1927 17.5052 54.4115 19.1732 54.5938 20.4492C54.7943 21.707 54.9674 22.6823 55.1133 23.375C55.2591 24.1953 55.3867 24.7786 55.4961 25.125C55.6055 25.4167 55.7331 25.6719 55.8789 25.8906C56.0065 26.0911 56.1615 26.2826 56.3438 26.4648C56.526 26.6471 56.7357 26.7656 56.9727 26.8203C56.3893 26.7292 55.888 26.6562 55.4688 26.6016C55.0495 26.5651 54.694 26.5378 54.4023 26.5195C54.0742 26.5013 53.7917 26.4922 53.5547 26.4922C53.3359 26.5104 53.0716 26.5378 52.7617 26.5742C52.2331 26.6289 51.5039 26.7656 50.5742 26.9844ZM59.1055 13.4219C59.5794 13.513 59.9896 13.5859 60.3359 13.6406C60.7005 13.6771 61.0104 13.7135 61.2656 13.75C61.5573 13.7865 61.8125 13.8138 62.0312 13.832C62.25 13.8503 62.5052 13.8685 62.7969 13.8867C63.2891 13.9049 63.9818 13.9049 64.875 13.8867C64.3464 13.8503 63.9271 13.987 63.6172 14.2969C63.3255 14.5885 63.1068 14.9258 62.9609 15.3086C62.7786 15.7643 62.6784 16.293 62.6602 16.8945C62.6237 17.6966 62.6419 18.4258 62.7148 19.082C62.806 19.7201 62.9609 20.2669 63.1797 20.7227C63.4167 21.1602 63.7266 21.4883 64.1094 21.707C64.4922 21.9076 64.9844 21.9622 65.5859 21.8711C66.1875 21.7799 66.6432 21.5703 66.9531 21.2422C67.2812 20.8958 67.5182 20.4766 67.6641 19.9844C67.8099 19.474 67.8919 18.8997 67.9102 18.2617C67.9466 17.6237 67.974 16.9583 67.9922 16.2656C67.9922 15.5729 67.9831 15.0807 67.9648 14.7891C67.9648 14.4792 67.9557 14.2786 67.9375 14.1875C67.9193 14.0964 67.8919 14.0599 67.8555 14.0781C67.819 14.0781 67.7734 14.0326 67.7188 13.9414C67.6823 13.8685 67.6276 13.7956 67.5547 13.7227C67.5 13.6497 67.4271 13.5677 67.3359 13.4766C67.2448 13.3672 67.1445 13.2578 67.0352 13.1484C67.5091 13.1667 67.9284 13.1849 68.293 13.2031C68.6758 13.2031 68.9948 13.2122 69.25 13.2305C69.5417 13.2487 69.7969 13.2669 70.0156 13.2852C70.2161 13.3034 70.4805 13.3307 70.8086 13.3672C71.082 13.4036 71.4375 13.4401 71.875 13.4766C72.3125 13.513 72.832 13.5677 73.4336 13.6406C73.0143 13.7318 72.6771 13.8685 72.4219 14.0508C72.1667 14.2331 71.9661 14.4154 71.8203 14.5977C71.6562 14.7982 71.5378 15.0169 71.4648 15.2539C71.4102 15.5638 71.4102 16.0378 71.4648 16.6758C71.5013 17.2409 71.5924 18.0156 71.7383 19C71.8841 19.9844 72.112 21.2786 72.4219 22.8828L70.2617 24.168L69.8242 20.5312C69.2956 21.4245 68.7305 22.1172 68.1289 22.6094C67.5456 23.0833 66.9987 23.4297 66.4883 23.6484C65.8867 23.9036 65.3034 24.0495 64.7383 24.0859C63.9909 24.0859 63.3438 24.0404 62.7969 23.9492C62.2682 23.8398 61.8125 23.7031 61.4297 23.5391C61.0469 23.375 60.737 23.1927 60.5 22.9922C60.2812 22.7734 60.1172 22.5547 60.0078 22.3359C59.7526 21.8802 59.6159 21.2969 59.5977 20.5859C59.5794 19.8568 59.6068 19.1367 59.6797 18.4258C59.7526 17.6966 59.8346 17.0312 59.9258 16.4297C60.0169 15.8281 60.0443 15.418 60.0078 15.1992C59.9714 15.0352 59.9167 14.8529 59.8438 14.6523C59.7708 14.4883 59.6797 14.306 59.5703 14.1055C59.4609 13.8867 59.306 13.6589 59.1055 13.4219Z" fill="black"/>
<path d="M78.4136 6.03906C79.6349 6.1849 80.6922 6.29427 81.5854 6.36719C82.4787 6.42188 83.217 6.46745 83.8003 6.50391C84.4748 6.54036 85.0399 6.54948 85.4956 6.53125C85.9696 6.51302 86.6167 6.46745 87.437 6.39453C88.1297 6.33984 89.0412 6.26693 90.1714 6.17578C91.3016 6.06641 92.7144 5.92057 94.4097 5.73828C94.4279 6.15755 94.437 6.56771 94.437 6.96875C94.4552 7.35156 94.4735 7.6888 94.4917 7.98047C94.5099 8.32682 94.519 8.64583 94.519 8.9375C94.519 9.2474 94.5008 9.63932 94.4644 10.1133C94.4279 10.5143 94.3641 11.0247 94.2729 11.6445C94.2 12.2461 94.0815 12.9661 93.9175 13.8047C93.6623 12.8203 93.4162 12.0273 93.1792 11.4258C92.9422 10.806 92.7235 10.3138 92.5229 9.94922C92.3042 9.52995 92.0854 9.21094 91.8667 8.99219C91.6297 8.82812 91.3472 8.69141 91.019 8.58203C90.7274 8.49089 90.3537 8.41797 89.8979 8.36328C89.4604 8.30859 88.9409 8.31771 88.3394 8.39062C88.2482 10.7969 88.1844 12.7474 88.1479 14.2422C88.1115 15.737 88.0841 16.9036 88.0659 17.7422C88.0477 18.7448 88.0386 19.4648 88.0386 19.9023C88.0568 20.5221 88.1571 21.1328 88.3394 21.7344C88.4852 22.2448 88.7222 22.7734 89.0503 23.3203C89.3784 23.8672 89.8524 24.3503 90.4722 24.7695H87.1362C86.8263 24.7695 86.4435 24.7878 85.9878 24.8242C85.605 24.8607 85.1128 24.8971 84.5112 24.9336C83.9279 24.9701 83.2443 25.0339 82.4604 25.125C82.7339 24.651 82.9526 24.2227 83.1167 23.8398C83.2808 23.457 83.4084 23.1289 83.4995 22.8555C83.6089 22.5273 83.6909 22.2357 83.7456 21.9805C83.7638 21.6159 83.8094 20.8776 83.8823 19.7656C83.9006 19.3099 83.9188 18.7448 83.937 18.0703C83.9735 17.3958 84.0099 16.5938 84.0464 15.6641C84.1011 14.7344 84.1466 13.668 84.1831 12.4648C84.2378 11.2435 84.2925 9.86719 84.3472 8.33594C84.019 8.24479 83.7091 8.25391 83.4175 8.36328C83.1258 8.45443 82.8706 8.57292 82.6519 8.71875C82.3966 8.90104 82.1506 9.11979 81.9136 9.375C81.6766 9.6849 81.4123 10.0859 81.1206 10.5781C80.8654 10.9974 80.5737 11.5534 80.2456 12.2461C79.9175 12.9206 79.5438 13.7591 79.1245 14.7617C79.0334 13.7044 78.9696 12.8385 78.9331 12.1641C78.8966 11.4714 78.8693 10.9336 78.8511 10.5508C78.8328 10.0951 78.8237 9.75781 78.8237 9.53906C78.8237 9.33854 78.8055 9.07422 78.769 8.74609C78.7326 8.47266 78.687 8.11719 78.6323 7.67969C78.5776 7.22396 78.5047 6.67708 78.4136 6.03906ZM96.1597 14.9258C96.2508 14.8164 96.3055 14.6159 96.3237 14.3242C96.3602 14.0143 96.4331 13.668 96.5425 13.2852C96.6701 12.9023 96.8797 12.5013 97.1714 12.082C97.4631 11.6628 97.937 11.2708 98.5933 10.9062C99.2313 10.5417 99.8511 10.3229 100.453 10.25C101.054 10.1771 101.628 10.2044 102.175 10.332C102.722 10.4596 103.233 10.6602 103.707 10.9336C104.199 11.207 104.645 11.5078 105.046 11.8359C105.32 12.0547 105.539 12.3737 105.703 12.793C105.867 13.194 105.994 13.6497 106.085 14.1602C106.177 14.6706 106.24 15.2083 106.277 15.7734C106.332 16.3203 106.368 16.8581 106.386 17.3867C106.404 17.8971 106.414 18.3711 106.414 18.8086C106.432 19.2279 106.468 19.5742 106.523 19.8477C106.596 20.2487 106.723 20.5951 106.906 20.8867C107.088 21.1602 107.289 21.3971 107.507 21.5977C107.726 21.7799 107.945 21.9258 108.164 22.0352C108.382 22.1445 108.574 22.2266 108.738 22.2812C108.847 22.3359 108.947 22.3724 109.039 22.3906C109.221 22.4635 109.348 22.4635 109.421 22.3906C109.312 22.6458 109.212 22.8646 109.121 23.0469C109.029 23.2292 108.957 23.3841 108.902 23.5117C108.829 23.6576 108.765 23.776 108.71 23.8672C108.656 23.9766 108.592 24.0768 108.519 24.168C108.464 24.2591 108.391 24.3594 108.3 24.4688C108.209 24.5781 108.118 24.6966 108.027 24.8242C107.79 24.7331 107.562 24.6237 107.343 24.4961C107.143 24.3685 106.96 24.25 106.796 24.1406C106.596 24.013 106.414 23.8854 106.25 23.7578C106.085 23.6302 105.931 23.4844 105.785 23.3203C105.657 23.1745 105.52 23.0195 105.375 22.8555C105.247 22.6914 105.138 22.5091 105.046 22.3086C104.937 22.5456 104.673 22.8828 104.253 23.3203C103.852 23.7578 103.324 24.1589 102.667 24.5234C102.011 24.8698 101.246 25.1159 100.371 25.2617C99.5138 25.4076 98.5659 25.3073 97.5269 24.9609C97.0711 24.8151 96.6427 24.6055 96.2417 24.332C95.8407 24.0404 95.4943 23.694 95.2026 23.293C94.9292 22.8919 94.7287 22.4362 94.6011 21.9258C94.4917 21.3971 94.5008 20.8138 94.6284 20.1758C94.756 19.5378 94.9839 19 95.312 18.5625C95.6401 18.125 96.0321 17.7695 96.4878 17.4961C96.9435 17.2227 97.4539 17.013 98.019 16.8672C98.5841 16.7214 99.1675 16.6211 99.769 16.5664C100.243 16.5482 100.717 16.5755 101.191 16.6484C101.592 16.7214 102.011 16.8581 102.449 17.0586C102.886 17.2409 103.26 17.5234 103.57 17.9062C103.552 16.9401 103.515 16.1745 103.46 15.6094C103.424 15.026 103.388 14.5794 103.351 14.2695C103.278 13.9049 103.214 13.6497 103.16 13.5039C103.069 13.3763 102.968 13.2305 102.859 13.0664C102.768 12.9023 102.649 12.7565 102.503 12.6289C102.358 12.4831 102.175 12.3646 101.957 12.2734C101.738 12.1823 101.483 12.1458 101.191 12.1641C100.881 12.1823 100.635 12.2643 100.453 12.4102C100.27 12.556 100.125 12.7292 100.015 12.9297C99.924 13.112 99.8693 13.3125 99.8511 13.5312C99.8328 13.75 99.842 13.9414 99.8784 14.1055C99.9149 14.2148 99.9696 14.3333 100.042 14.4609C100.115 14.5703 100.216 14.6888 100.343 14.8164C100.471 14.944 100.644 15.0534 100.863 15.1445C100.444 15.1992 100.07 15.2448 99.7417 15.2812C99.4136 15.2995 99.131 15.3268 98.894 15.3633C98.6206 15.3997 98.3836 15.4271 98.1831 15.4453C97.9826 15.4635 97.7456 15.5 97.4722 15.5547C97.2352 15.5911 96.9435 15.6367 96.5972 15.6914C96.2508 15.7461 95.8498 15.819 95.394 15.9102C95.5034 15.7826 95.6037 15.6641 95.6948 15.5547C95.786 15.4271 95.868 15.3177 95.9409 15.2266C96.0138 15.1172 96.0868 15.0169 96.1597 14.9258ZM100.261 18.1797C99.9331 18.1979 99.605 18.2799 99.2769 18.4258C98.9487 18.5534 98.6571 18.7448 98.4019 19C98.1466 19.237 97.9279 19.5195 97.7456 19.8477C97.5815 20.1576 97.4995 20.5039 97.4995 20.8867C97.4995 21.2695 97.5907 21.6068 97.7729 21.8984C97.9735 22.1719 98.2287 22.3997 98.5386 22.582C98.8667 22.7643 99.2131 22.8737 99.5776 22.9102C99.9604 22.9466 100.334 22.9102 100.699 22.8008C101.045 22.6732 101.373 22.4727 101.683 22.1992C101.993 21.9076 102.257 21.5977 102.476 21.2695C102.695 20.9232 102.85 20.5859 102.941 20.2578C103.032 19.9115 103.041 19.6289 102.968 19.4102C102.822 18.9362 102.494 18.6081 101.984 18.4258C101.473 18.2253 100.899 18.1432 100.261 18.1797ZM109.777 26.7656C109.959 26.4922 110.105 26.237 110.214 26C110.324 25.763 110.415 25.5625 110.488 25.3984C110.561 25.1979 110.615 25.0156 110.652 24.8516C110.67 24.7422 110.679 24.4232 110.679 23.8945C110.679 23.3659 110.661 22.7005 110.625 21.8984C110.606 21.0964 110.579 20.194 110.542 19.1914C110.524 18.1888 110.488 17.168 110.433 16.1289C110.397 15.0898 110.351 14.0781 110.296 13.0938C110.26 12.1094 110.223 11.2253 110.187 10.4414C110.151 9.63932 110.114 8.98307 110.078 8.47266C110.041 7.96224 110.014 7.67057 109.996 7.59766C109.959 7.48828 109.895 7.37891 109.804 7.26953C109.622 7.05078 109.312 6.84115 108.875 6.64062C109.804 6.40365 110.515 6.21224 111.007 6.06641C111.299 5.99349 111.554 5.92057 111.773 5.84766C111.973 5.77474 112.174 5.70182 112.375 5.62891C112.539 5.55599 112.721 5.47396 112.921 5.38281C113.122 5.27344 113.304 5.15495 113.468 5.02734C113.377 5.55599 113.304 6.06641 113.25 6.55859C113.195 7.05078 113.149 7.50651 113.113 7.92578C113.076 8.39974 113.058 8.85547 113.058 9.29297C112.967 10.1862 112.912 11.1615 112.894 12.2188C112.894 13.2578 112.903 14.3151 112.921 15.3906C112.94 16.4661 112.976 17.5143 113.031 18.5352C113.085 19.556 113.14 20.4857 113.195 21.3242C113.268 22.1445 113.332 22.8464 113.386 23.4297C113.459 23.9948 113.514 24.3594 113.55 24.5234C113.623 24.7969 113.696 25.0612 113.769 25.3164C113.842 25.5352 113.924 25.763 114.015 26C114.106 26.2552 114.216 26.4557 114.343 26.6016H111.691C111.454 26.6016 111.226 26.6107 111.007 26.6289C110.807 26.6471 110.597 26.6654 110.378 26.6836C110.16 26.7018 109.959 26.7292 109.777 26.7656ZM122.437 21.5977C122.947 21.5977 123.421 21.543 123.859 21.4336C124.223 21.3424 124.57 21.1966 124.898 20.9961C125.244 20.7773 125.472 20.4583 125.582 20.0391C125.946 20.112 126.256 20.1758 126.511 20.2305C126.766 20.2669 126.985 20.3034 127.167 20.3398C127.368 20.3945 127.541 20.431 127.687 20.4492C127.833 20.4857 128.006 20.5221 128.207 20.5586C128.389 20.5951 128.608 20.6406 128.863 20.6953C129.136 20.7318 129.455 20.7865 129.82 20.8594C129.546 20.8229 129.264 20.8503 128.972 20.9414C128.699 21.0326 128.434 21.1328 128.179 21.2422C127.888 21.3698 127.614 21.5247 127.359 21.707C127.195 21.8164 127.003 21.9805 126.785 22.1992C126.584 22.418 126.292 22.6276 125.91 22.8281C125.527 23.0286 125.016 23.2018 124.378 23.3477C123.759 23.4753 122.957 23.5208 121.972 23.4844C120.787 23.4479 119.794 23.2383 118.992 22.8555C118.19 22.4544 117.542 21.9714 117.05 21.4062C116.558 20.8229 116.203 20.194 115.984 19.5195C115.765 18.8451 115.647 18.2161 115.628 17.6328C115.61 17.0495 115.783 16.4388 116.148 15.8008C116.513 15.1628 117.023 14.5794 117.679 14.0508C118.354 13.5221 119.165 13.0938 120.113 12.7656C121.061 12.4193 122.1 12.2461 123.23 12.2461C123.886 12.2461 124.488 12.3281 125.035 12.4922C125.6 12.638 126.11 12.8385 126.566 13.0938C127.04 13.349 127.45 13.6406 127.796 13.9688C128.143 14.2786 128.434 14.5977 128.671 14.9258C128.908 15.2721 129.109 15.6367 129.273 16.0195C129.419 16.3477 129.537 16.7214 129.628 17.1406C129.72 17.5599 129.747 17.9883 129.71 18.4258C128.325 18.4622 127.204 18.4896 126.347 18.5078C125.509 18.526 124.852 18.5352 124.378 18.5352H123.148H122.218C121.89 18.5352 121.462 18.5443 120.933 18.5625C120.404 18.5807 119.757 18.6081 118.992 18.6445C119.083 19.3737 119.311 19.9388 119.675 20.3398C120.058 20.7227 120.459 21.0143 120.878 21.2148C121.352 21.4336 121.872 21.5612 122.437 21.5977ZM119.976 16.6758C120.559 16.7122 121.042 16.7396 121.425 16.7578C121.826 16.776 122.154 16.7943 122.41 16.8125C122.683 16.8307 122.902 16.8398 123.066 16.8398H123.75C124.205 16.8398 125.053 16.8125 126.292 16.7578C126.238 15.9557 126.065 15.3451 125.773 14.9258C125.5 14.5065 125.208 14.1966 124.898 13.9961C124.533 13.7773 124.132 13.6497 123.695 13.6133C122.51 13.6315 121.626 13.8776 121.042 14.3516C120.477 14.8255 120.122 15.6003 119.976 16.6758Z" fill="#467247"/>
</svg>
